<svg width="490" height="300" viewBox="0 0 490 300" fill="none" xmlns="http://www.w3.org/2000/svg">
<ellipse cx="245" cy="282.5" rx="159" ry="11.5" fill="#D8D8D8"/>
<path fill-rule="evenodd" clip-rule="evenodd" d="M224.794 94.7057C224.794 94.7057 190.513 74.7222 186.36 57.2908C182.207 39.8595 181.32 4.55773 181.32 4.55773L166.645 1.05002C166.645 1.05002 155.662 64.5053 159.719 82.6722C163.777 100.839 199.768 129.773 199.768 129.773L224.794 94.7057Z" fill="#A324EF"/>
<path fill-rule="evenodd" clip-rule="evenodd" d="M166.137 -1L165.011 9.97132L181.487 10.5065L181.487 -1L166.137 -1Z" fill="black"/>
<path fill-rule="evenodd" clip-rule="evenodd" d="M258.989 87.086C258.989 87.086 288.808 78.7637 292.38 61.3332C295.951 43.9028 300.408 6.14081 300.408 6.14081L315.58 1.35962C315.58 1.35962 322.834 61.3078 319.382 79.464C315.931 97.6202 286.364 122.879 286.364 122.879L258.989 87.086Z" fill="#AF2DFD"/>
<path fill-rule="evenodd" clip-rule="evenodd" d="M315.801 -1.50476L316.606 10.3189L299.803 9.85376L301.387 -1.50476L315.801 -1.50476Z" fill="black"/>
<path d="M290.162 159.992C290.162 159.992 292.963 149.19 314.125 146.966C335.286 144.742 378.86 173.356 339.787 239.671L337.834 242.264C337.834 242.264 353.33 238.247 355.393 249.732C357.287 261.234 339.556 261.903 337.355 262.135C335.154 262.366 300.094 264.26 307.127 212.298C307.127 212.298 297.165 182.659 296.571 181.885C296.158 181.212 290.162 159.992 290.162 159.992Z" fill="#FFCCE9"/>
<path fill-rule="evenodd" clip-rule="evenodd" d="M219.74 94.6307C219.74 94.6307 202.072 116.941 198.067 131.124C192.973 149.166 185.383 192.221 195.5 211.898C206.342 232.987 295.119 238.234 301.309 205.074C307.499 171.915 280.501 97.4145 280.501 97.4145L219.74 94.6307Z" fill="#D083FF"/>
<path d="M294.894 82.4087C292.594 73.1867 283.171 73.1867 283.171 73.1867C292.265 67.917 290.512 57.1749 290.512 57.1749C289.307 49.8784 282.624 49.5744 282.624 49.5744C285.801 43.7979 281.528 39.0349 281.528 39.0349C278.898 36.4001 275.502 36.096 273.201 36.2987C274.735 28.0901 269.805 18.4628 269.805 18.4628C263.231 6.70725 254.795 15.9292 254.795 15.9292C253.59 8.53138 244 6.84552 244 6.84552C232.061 8.53138 232.006 20.2869 232.006 20.2869L223.022 15.6252C212.504 18.0574 218.749 27.3807 218.749 27.3807L218.42 29.1035C216.667 27.6848 215.133 26.6714 215.133 26.6714C201.219 32.8531 213.161 42.5819 213.161 42.5819C213.161 42.5819 217.434 44.2033 221.598 39.4403L222.036 40.251L245.153 45.014L265.532 40.9604L261.369 49.9797L268.819 101.461C268.819 101.461 275.94 115.142 283.938 111.696C291.936 108.251 286.349 101.461 286.349 101.461C298.729 96.3938 294.894 82.4087 294.894 82.4087Z" fill="#FFCCE9"/>
<path d="M218.653 41.514C218.653 41.514 211.97 37.241 211.313 27.4901C211.313 27.4901 210.436 23.765 211.313 21.6833C212.189 19.6016 215.367 18.6156 217.229 21.6833C218.982 24.751 224.022 31.6534 222.926 36.8028C221.831 42.0618 218.653 41.514 218.653 41.514Z" fill="#AF2DFD"/>
<path d="M218.653 39.2131C218.653 38.994 218.653 38.6653 218.653 38.4462H197.179V57.2908C207.807 57.2908 218.653 51.1553 218.653 39.2131Z" fill="black"/>
<path d="M186.442 38.4462C186.442 50.3884 191.811 57.6195 202.438 57.6195C202.438 57.6195 197.289 56.4143 197.398 56.4143L197.289 38.8844L186.442 38.4462Z" fill="#99A0A7"/>
<path d="M225.337 60.1315C225.227 60.5697 225.118 61.1175 224.898 61.7749C225.008 62.5418 225.008 63.3088 225.118 64.0757C225.008 62.5418 225.118 61.1175 225.337 60.1315Z" fill="#3BB0E5"/>
<path d="M225.337 60.1315C225.227 60.5697 225.118 61.1175 224.898 61.7749C225.008 62.5418 225.008 63.3088 225.118 64.0757C225.008 62.5418 225.118 61.1175 225.337 60.1315Z" fill="#3BB0E5"/>
<path d="M244.649 84.9091L239.006 87.1689L221.838 87.1689C218.141 93.7613 214.031 101.234 209.393 111.253C242.259 102.503 244.649 84.9091 244.649 84.9091Z" fill="#AF2DFD"/>
<path d="M285.924 121.46C285.486 115.544 284.938 109.627 284.39 103.821C283.295 93.1932 281.98 82.6753 279.679 72.2669C277.378 61.9681 274.311 51.4502 267.737 43.0139C266.532 41.4801 265.108 39.3984 263.574 37.6454C258.863 32.1673 251.851 31.4004 245.058 31.7291C241.99 31.8386 238.703 32.0578 235.526 32.7151H235.416C235.197 32.7151 235.088 32.8247 234.869 32.8247C234.649 32.8247 234.54 32.9343 234.321 32.9343C233.554 33.0438 232.787 33.2629 232.02 33.4821C231.91 33.4821 231.801 33.5916 231.691 33.5916C228.733 34.4681 225.884 35.7829 223.145 36.988C214.161 41.0418 205.396 45.753 196.851 50.7928C188.962 55.504 179.759 59.6673 176.472 68.9801C174.171 75.8825 175.267 83.004 179.43 88.9203C185.127 97.0279 193.345 98.0139 203.205 97.4661C207.697 96.1514 212.189 94.2888 216.024 91.7689C224.57 86.2908 228.843 78.6215 232.129 69.3088C232.677 67.5558 235.526 68.3227 234.869 70.0757C231.801 79.0598 227.528 87.9343 219.311 93.1932C217.12 94.508 214.928 95.7132 212.737 96.8088C221.831 95.9323 234.869 90.5637 242.647 86.9482C241.442 91.4402 236.731 100.643 219.859 114.01C219.355 131.054 214.11 174.65 226.945 191.689C236.469 204.332 272.46 202.026 278.573 199.816C292.926 194.626 287.677 144.687 285.924 121.46Z" fill="#D083FF"/>
<path d="M234.759 69.8565C235.416 68.1035 232.568 67.3366 232.02 69.0896C228.733 78.4024 224.46 86.1812 215.914 91.5498C211.97 94.0697 207.588 95.9322 203.096 97.247C206.054 97.1374 209.012 96.8087 212.189 96.5896C212.299 96.5896 212.408 96.5896 212.518 96.5896C214.819 95.494 217.01 94.2888 219.092 92.9741C227.528 87.7151 231.691 78.8406 234.759 69.8565Z" fill="black" stroke="black" stroke-width="0.9"/>
<path d="M185.127 63.9741H182.717C180.855 63.9741 180.855 66.8227 182.717 66.8227H185.127C186.99 66.8227 186.99 63.9741 185.127 63.9741Z" fill="black"/>
<path d="M201.014 63.9741H198.604C196.741 63.9741 196.741 66.8227 198.604 66.8227H201.014C202.767 66.8227 202.767 63.9741 201.014 63.9741Z" fill="black"/>
<path d="M257.329 39.2131C257.329 38.994 257.329 38.6653 257.329 38.4462H241.114V57.5099C251.741 57.5099 257.329 51.1553 257.329 39.2131Z" fill="black"/>
<path d="M225.008 38.4462C225.008 50.3884 230.596 57.6195 241.114 57.6195V38.4462H225.008Z" fill="#99A0A7"/>
<path fill-rule="evenodd" clip-rule="evenodd" d="M222.216 35.107C222.342 37.6093 224.57 39.4564 227.056 39.1503L234.365 38.2508C237.079 37.9168 238.815 35.2096 237.939 32.6195C234.511 22.4797 226.709 0.458254 223.803 1.01366C220.851 1.57793 221.706 24.9689 222.216 35.107Z" fill="#E4594F"/>
<mask id="mask0" mask-type="alpha" maskUnits="userSpaceOnUse" x="221" y="1" width="18" height="39">
<path fill-rule="evenodd" clip-rule="evenodd" d="M222.216 35.107C222.342 37.6093 224.57 39.4564 227.056 39.1503L234.365 38.2508C237.079 37.9168 238.815 35.2096 237.939 32.6195C234.511 22.4797 226.709 0.458254 223.803 1.01366C220.851 1.57793 221.706 24.9689 222.216 35.107Z" fill="white"/>
</mask>
<g mask="url(#mask0)">
<path d="M228.633 6.70714L227.874 4.08508C226.101 6.45339 223.822 8.56796 221.373 10.2596L221.542 12.7971C224.159 11.1054 226.607 9.07545 228.633 6.70714Z" fill="white"/>
<path d="M231.446 13.2972L230.547 10.3717C228.298 14.0716 225.06 17.2553 221.282 19.4924L221.462 21.9877C225.42 19.9226 228.928 16.9111 231.446 13.2972Z" fill="white"/>
<path d="M235.52 20.7886L234.637 17.7473C231.105 22.6527 226.69 26.7732 221 29.5202L221.196 32.2673C226.985 29.5202 231.694 25.5959 235.52 20.7886Z" fill="white"/>
<path d="M222.871 37.4467L223.037 39.3687L224.289 39.2016C229.38 37.196 233.802 34.1039 237.391 30.2598L236.64 27.7527C233.051 32.0983 228.462 35.3575 222.871 37.4467Z" fill="white"/>
</g>
<path d="M274.311 36.9124H187.757C185.894 36.9124 185.894 39.761 187.757 39.761H274.311C276.173 39.761 276.173 36.9124 274.311 36.9124Z" fill="black"/>
<path d="M259.52 41.5139C259.52 41.5139 267.408 26.0657 270.038 23.1076C272.667 20.0398 277.269 13.6853 275.845 26.7231C275.845 26.7231 273.873 41.1853 266.313 47.4303L259.52 41.5139Z" fill="#AF2DFD"/>
<path fill-rule="evenodd" clip-rule="evenodd" d="M209.917 104.378C211.827 105.414 212.984 108.604 213.926 110.862C214.908 113.216 216.282 115.879 215.756 118.426C215.449 119.913 210.102 122.358 208.671 121.512C206.809 120.41 206.033 117.911 205.182 115.87C204.36 113.9 202.745 110.664 203.067 108.257C203.389 105.851 208.007 103.342 209.917 104.378Z" stroke="#FABB05" stroke-width="4.68"/>
<path fill-rule="evenodd" clip-rule="evenodd" d="M220.17 124.559C222.325 125.081 224.159 127.589 225.581 129.34C227.065 131.167 229.01 133.182 229 135.462C228.994 136.793 224.062 139.906 222.433 139.456C220.313 138.869 219.009 136.879 217.724 135.296C216.482 133.767 214.173 131.307 214.005 129.187C213.837 127.067 218.015 124.038 220.17 124.559Z" stroke="#FABB05" stroke-width="4.68"/>
<path fill-rule="evenodd" clip-rule="evenodd" d="M279.042 103.661C277.059 104.554 275.636 107.729 274.507 109.965C273.329 112.297 271.737 114.91 272.037 117.575C272.212 119.131 277.3 122.125 278.791 121.384C280.733 120.419 281.718 117.92 282.739 115.899C283.724 113.948 285.606 110.767 285.495 108.264C285.385 105.762 281.025 102.768 279.042 103.661Z" stroke="#FABB05" stroke-width="4.68"/>
<path fill-rule="evenodd" clip-rule="evenodd" d="M268.105 123.021C265.996 123.341 263.975 125.717 262.429 127.363C260.816 129.079 258.743 130.943 258.503 133.268C258.363 134.625 262.72 138.282 264.321 137.983C266.404 137.592 267.863 135.692 269.261 134.204C270.611 132.768 273.079 130.487 273.471 128.342C273.863 126.197 270.215 122.7 268.105 123.021Z" stroke="#FABB05" stroke-width="4.68"/>
<path d="M212.5 117L218.5 127.5" stroke="#EDA606" stroke-width="5.04" stroke-linecap="round"/>
<path d="M208.213 99.5727C208.213 99.5727 206.276 102.034 206.644 104.713C207.011 107.392 207.523 109.451 207.523 109.451" stroke="#EDA606" stroke-width="4.32" stroke-linecap="round" stroke-linejoin="round"/>
<path d="M276.5 118.5L269 127.5" stroke="#EDA606" stroke-width="4.32" stroke-linecap="round"/>
<path d="M283.487 98.0073C283.487 98.0073 284.511 101.599 284.213 103.401C283.914 105.203 280.939 107.91 280.939 107.91" stroke="#EDA606" stroke-width="4.32" stroke-linecap="round"/>
<path d="M274.379 155.229L261.53 133.301C260.546 131.59 258.75 130.538 256.808 130.536L231.877 130.971C229.934 131.037 228.172 132.152 227.249 133.9L215.172 156.204C214.235 157.934 214.272 160.043 215.268 161.738L228.12 183.792C229.095 185.527 230.887 186.615 232.844 186.659L257.775 186.224C259.729 186.12 261.486 184.975 262.401 183.208L274.477 160.84C275.418 159.084 275.38 156.951 274.379 155.229Z" fill="#4285F4"/>
<path opacity="0.07" d="M260.949 160.078L243.407 150.272L244.888 156.641L238.269 150.306L239.708 159.984L234.415 173.554L248.548 187.018L257.986 186.853C259.926 186.752 261.671 185.652 262.58 183.956L270.722 169.407L260.949 160.078Z" fill="black"/>
<path d="M243.107 160.444L239.807 150.075L235.593 147.246L239.814 160.501L236.058 173.896L240.171 170.922L243.107 160.444Z" fill="white"/>
<path fill-rule="evenodd" clip-rule="evenodd" d="M246.87 160.378L242.649 147.109L261.989 160.114L243.115 173.787L246.87 160.378ZM246.032 151.667L248.193 158.449L255.93 158.314L246.032 151.667Z" fill="white"/>
<path d="M254.207 175.365L247.738 186.61L230.797 186.61C230.055 186.61 229.325 186.414 228.683 186.042C228.041 185.669 227.508 185.134 227.139 184.49L213.436 160.599C213.07 159.96 212.878 159.238 212.878 158.502C212.878 157.766 213.07 157.043 213.436 156.405L218.65 147.316L225.087 158.5L234.79 175.365L254.207 175.365Z" fill="#FBBC05"/>
<path d="M275.564 160.599L261.861 184.494C261.493 185.138 260.96 185.674 260.317 186.046C259.675 186.418 258.946 186.614 258.203 186.614L247.734 186.614L254.203 175.369L263.913 158.5L254.203 141.635L267.09 141.635L275.561 156.405C275.929 157.042 276.124 157.765 276.125 158.501C276.125 159.238 275.932 159.961 275.564 160.599Z" fill="#EA4335"/>
<path d="M267.094 141.634L234.79 141.634L225.087 158.5L218.65 147.313L227.139 132.51C227.508 131.866 228.04 131.33 228.683 130.958C229.325 130.585 230.054 130.389 230.797 130.39L258.207 130.39C258.949 130.39 259.678 130.587 260.32 130.959C260.963 131.331 261.495 131.866 261.865 132.51L267.094 141.634Z" fill="#4285F4"/>
<path d="M254.207 141.635L263.91 158.5L254.203 175.365L234.793 175.365L225.087 158.5L234.79 141.635L254.207 141.635Z" fill="#E0E0E0"/>
<path d="M244.5 166.935C249.158 166.935 252.935 163.158 252.935 158.5C252.935 153.842 249.158 150.065 244.5 150.065C239.842 150.065 236.065 153.842 236.065 158.5C236.065 163.158 239.842 166.935 244.5 166.935Z" fill="white"/>
<path opacity="0.2" d="M227.139 132.859C227.507 132.214 228.04 131.679 228.683 131.306C229.325 130.934 230.054 130.738 230.797 130.738L258.207 130.738C258.949 130.739 259.678 130.935 260.32 131.307C260.963 131.68 261.495 132.215 261.865 132.859L266.896 141.634L267.097 141.634L261.865 132.51C261.496 131.866 260.963 131.33 260.321 130.958C259.679 130.585 258.949 130.389 258.207 130.39L230.797 130.39C230.055 130.39 229.325 130.586 228.683 130.958C228.041 131.331 227.508 131.866 227.139 132.51L218.65 147.313L218.751 147.489L227.139 132.859Z" fill="white"/>
<path d="M225.087 158.5L234.79 141.634L267.094 141.634L266.893 141.282L234.79 141.282L225.087 158.148" fill="#1A237E" fill-opacity="0.2"/>
<path opacity="0.2" d="M213.436 156.753L218.65 147.661L225.087 158.849L234.79 175.714L254.002 175.714L254.207 175.362L234.79 175.362L225.087 158.5L218.65 147.313L213.436 156.401C213.043 157.093 212.852 157.881 212.886 158.676C212.913 158.001 213.101 157.341 213.436 156.753Z" fill="white"/>
<g opacity="0.2">
<path opacity="0.2" d="M247.939 186.258L230.797 186.258C230.055 186.258 229.325 186.062 228.683 185.69C228.041 185.317 227.508 184.782 227.139 184.138L213.436 160.247C213.101 159.659 212.913 159 212.886 158.324C212.849 159.119 213.04 159.908 213.436 160.599L227.139 184.494C227.507 185.138 228.04 185.674 228.683 186.046C229.325 186.418 230.054 186.614 230.797 186.614L247.738 186.614L247.939 186.258Z" fill="#BF360C"/>
</g>
<g opacity="0.2">
<path opacity="0.2" d="M264.111 158.5L254.408 141.634L254.207 141.634L263.913 158.5L264.111 158.5Z" fill="#3E2723"/>
<path opacity="0.2" d="M275.564 160.247L261.861 184.141C261.493 184.786 260.96 185.321 260.317 185.694C259.675 186.066 258.946 186.262 258.203 186.262L247.939 186.262L247.734 186.614L258.203 186.614C258.945 186.613 259.674 186.417 260.317 186.045C260.959 185.672 261.492 185.137 261.861 184.494L275.564 160.599C275.958 159.907 276.149 159.119 276.114 158.324C276.087 158.999 275.899 159.659 275.564 160.247Z" fill="#3E2723"/>
</g>
<g opacity="0.2">
<path opacity="0.2" d="M267.094 141.983L275.564 156.753C275.899 157.341 276.087 158.001 276.114 158.676C276.151 157.881 275.96 157.092 275.564 156.401L267.094 141.631L254.207 141.631L254.412 141.983" fill="white"/>
<path opacity="0.2" d="M254.207 175.718L264.111 158.5L263.913 158.5L254.207 175.366L247.738 186.61L247.939 186.61L254.207 175.718Z" fill="white"/>
</g>
<path d="M275.564 156.401L267.094 141.631L261.861 132.506C261.493 131.862 260.96 131.326 260.317 130.954C259.675 130.582 258.946 130.386 258.203 130.386L230.797 130.386C230.055 130.386 229.325 130.582 228.683 130.955C228.041 131.327 227.508 131.862 227.139 132.506L213.436 156.401C213.07 157.04 212.878 157.763 212.878 158.498C212.878 159.234 213.07 159.957 213.436 160.595L227.139 184.49C227.507 185.134 228.04 185.67 228.683 186.042C229.325 186.415 230.054 186.611 230.797 186.61L258.207 186.61C258.949 186.61 259.678 186.413 260.32 186.041C260.963 185.669 261.495 185.134 261.865 184.49L275.568 160.595C275.934 159.957 276.126 159.234 276.125 158.498C276.125 157.762 275.931 157.039 275.564 156.401Z" fill="url(#paint0_radial)"/>
<path fill-rule="evenodd" clip-rule="evenodd" d="M192.5 182.299C192.5 182.299 172.281 213.375 168.133 228.652C163.985 243.929 175.019 277 175.019 277H194.99C194.99 277 195.144 253.337 197.644 241.764C200.144 230.19 218 211.032 218 211.032L192.5 182.299Z" fill="#D083FF"/>
<path d="M195.141 281.5C195.141 281.5 195.141 275.909 195.5 265.732L171.5 265C172.54 270.328 173.719 276.194 175.061 281.5H195.141Z" fill="black"/>
<path fill-rule="evenodd" clip-rule="evenodd" d="M300.309 183C300.309 183 319.874 213.724 323.9 228.197C327.926 242.67 317.217 274 317.217 274H297.833C297.833 274 297.684 251.583 295.257 240.618C292.831 229.654 275.5 211.504 275.5 211.504L300.309 183Z" fill="#D083FF"/>
<path d="M297.837 281.5C297.837 281.5 297.837 275.909 297.5 265.732L320 265C319.025 270.328 317.92 276.194 316.662 281.5H297.837Z" fill="black"/>
<path fill-rule="evenodd" clip-rule="evenodd" d="M107.893 90C107.893 90 107.91 101.58 106.204 106.665C104.497 111.749 99 116.494 99 116.494C99 116.494 108.926 116.842 113.56 118.865C118.193 120.888 125.354 128 125.354 128C125.354 128 123.367 117.5 124.724 112.614C126.08 107.727 133 100.452 133 100.452C133 100.452 124.41 100.727 120.206 98.9772C116.002 97.2271 107.893 90 107.893 90Z" fill="#00AC47"/>
<path fill-rule="evenodd" clip-rule="evenodd" d="M404.795 108.553C404.795 108.553 396.519 115.279 391.87 116.978C387.221 118.677 380.571 117.406 380.571 117.406C380.571 117.406 386.2 124.87 387.496 129.434C388.793 133.997 387.944 143.359 387.944 143.359C387.944 143.359 394.281 135.819 398.581 133.978C402.881 132.137 412.184 132.983 412.184 132.983C412.184 132.983 406.9 126.857 405.663 122.767C404.426 118.676 404.795 108.553 404.795 108.553Z" fill="#E94232"/>
<path fill-rule="evenodd" clip-rule="evenodd" d="M81.9313 201.539C81.9313 201.539 87.1852 209.022 88.336 213.118C89.4869 217.214 87.9278 222.88 87.9278 222.88C87.9278 222.88 94.7794 218.415 98.8201 217.535C102.861 216.654 110.91 217.872 110.91 217.872C110.91 217.872 104.817 212.018 103.519 208.216C102.222 204.414 103.595 196.438 103.595 196.438C103.595 196.438 97.9263 200.675 94.299 201.529C90.6716 202.383 81.9313 201.539 81.9313 201.539Z" fill="#FBB900"/>
<path fill-rule="evenodd" clip-rule="evenodd" d="M67.5099 143.32C67.5099 143.32 69.8113 149.292 69.9276 152.258C70.0439 155.223 68.1158 158.773 68.1158 158.773C68.1158 158.773 73.3624 156.964 76.1799 157.079C78.9974 157.195 84.1406 159.43 84.1406 159.43C84.1406 159.43 81.0258 154.41 80.7659 151.617C80.506 148.824 82.6754 143.683 82.6754 143.683C82.6754 143.683 78.2489 145.547 75.7096 145.486C73.1704 145.425 67.5099 143.32 67.5099 143.32Z" fill="#E94232"/>
<path fill-rule="evenodd" clip-rule="evenodd" d="M357.091 63.905C357.091 63.905 354.125 70.5908 351.809 73.0756C349.494 75.5604 345.025 76.8519 345.025 76.8519C345.025 76.8519 350.803 79.6637 353.022 82.0499C355.241 84.436 357.646 90.4232 357.646 90.4232C357.646 90.4232 359.17 83.8426 361.228 81.3798C363.286 78.917 369.246 76.54 369.246 76.54C369.246 76.54 364.097 74.4391 362.062 72.3235C360.027 70.2079 357.091 63.905 357.091 63.905Z" fill="#FBB900"/>
<path fill-rule="evenodd" clip-rule="evenodd" d="M398.367 206.718C398.367 206.718 403.264 202.598 406.031 201.522C408.797 200.447 412.781 201.114 412.781 201.114C412.781 201.114 409.362 196.742 408.554 194.041C407.746 191.339 408.185 185.748 408.185 185.748C408.185 185.748 404.453 190.328 401.896 191.483C399.34 192.638 393.773 192.26 393.773 192.26C393.773 192.26 396.976 195.839 397.745 198.26C398.514 200.68 398.367 206.718 398.367 206.718Z" fill="#00AC47"/>
<defs>
<radialGradient id="paint0_radial" cx="0" cy="0" r="1" gradientUnits="userSpaceOnUse" gradientTransform="translate(221.971 134.183) scale(64.911)">
<stop stop-color="white" stop-opacity="0.1"/>
<stop offset="1" stop-color="white" stop-opacity="0"/>
</radialGradient>
</defs>
</svg>
